#!OML:ASF E:\Steps\Project 1\Capture day 1\Session 2\Subject.ASF
:FULLY-SPECIFIED
:DEGREES
254
root 10.4249 15.9557 11.2906 -137.561 -2.79725 163.882
lowerback -8.82393 -3.30485 -2.11968
upperback 2.96459 -4.16616 -0.853098
thorax 8.17624 -2.13622 -0.37555
lowerneck -1.14783 -4.65614 1.30763
upperneck 1.36666 -6.24841 -1.80257
head 0.504414 -3.14526 -0.805988
rclavicle 1.74931e-014 0
rhumerus -34.9156 9.6292 -79.3121
rradius 41.9931
rwrist -7.76506
rhand -2.4322 -50.5453
rfingers 7.12502
rthumb 23.2588 -79.1606
lclavicle 1.74931e-014 0
lhumerus -37.7894 -12.8421 72.5054
lradius 32.9097
lwrist 6.10334
lhand -19.3881 -11.3607
lfingers 7.12502
lthumb 6.93051 18.5059
rfemur -74.8252 -18.2583 5.1188
rtibia 53.5055
rfoot -26.3723 -7.2466
rtoes -30.1128
lfemur -35.5753 -7.248 -0.315132
ltibia 58.5391
lfoot -10.0601 14.3767
ltoes -14.733
255
root 10.4798 15.993 11.2477 -137.45 -2.44372 164.262
lowerback -9.0748 -3.19379 -2.16741
upperback 2.95193 -4.00385 -0.801141
thorax 8.31277 -2.05848 -0.283104
lowerneck -1.38139 -4.5328 1.33097
upperneck 1.54909 -6.08457 -1.90599
head 0.598249 -3.06574 -0.851185
rclavicle 2.62396e-014 1.59028e-015
rhumerus -34.4739 9.463 -79.5166
rradius 42.233
rwrist -8.05923
rhand -2.75858 -50.3792
rfingers 7.12502
rthumb 22.9456 -79.0337
lclavicle 2.62396e-014 1.59028e-015
lhumerus -37.7241 -12.4671 72.5441
lradius 32.6832
lwrist 5.91675
lhand -19.4928 -11.1661
lfingers 7.12502
lthumb 6.82945 18.7038
rfemur -74.8104 -17.7736 5.84596
rtibia 53.0618
rfoot -26.2726 -6.65889
rtoes -28.9908
lfemur -37.0533 -6.91214 -0.930717
ltibia 60.6722
lfoot -10.4508 14.174
ltoes -16.9772
256
root 10.5374 16.0281 11.2223 -136.925 -2.13397 164.465
lowerback -9.46093 -3.19843 -2.38978
upperback 2.67314 -3.97016 -0.749337
thorax 8.25504 -2.04936 -0.110942
lowerneck -1.50379 -4.46636 1.27672
upperneck 1.86128 -5.91324 -1.92422
head 0.718732 -2.95181 -0.856202
rclavicle -1.74931e-014 5.56597e-015
rhumerus -34.2754 9.40722 -79.817
rradius 42.5179
rwrist -8.30288
rhand -2.96963 -50.3171
rfingers 7.12502
rthumb 22.7431 -78.9966
lclavicle -1.74931e-014 5.56597e-015
lhumerus -37.9206 -12.0612 72.5583
lradius 32.523
lwrist 5.90619
lhand -19.2854 -10.9401
lfingers 7.12502
lthumb 7.02969 18.9232
rfemur -75.4227 -17.478 6.51091
rtibia 52.8894
rfoot -26.1731 -6.3671
rtoes -28.0744
lfemur -39.2941 -6.63735 -1.57819
ltibia 63.0485
lfoot -10.9053 13.7266
ltoes -18.6511
257
root 10.5955 16.065 11.1969 -136.492 -1.83397 164.643
lowerback -9.76935 -3.38171 -2.73877
upperback 2.14137 -4.17243 -0.554675
thorax 7.90674 -2.16124 0.257482
lowerneck -0.307492 -4.27825 0.62989
upperneck 1.6528 -5.64353 -1.71843
head 0.483114 -2.81029 -0.649474
rclavicle 7.15625e-015 4.69132e-014
rhumerus -34.5995 10.1274 -80.1426
rradius 42.7876
rwrist -8.47591
rhand -2.27705 -50.7363
rfingers 7.12502
rthumb 23.4076 -79.3327
lclavicle 7.15625e-015 4.69132e-014
lhumerus -38.8607 -11.1603 72.7235
lradius 32.405
lwrist 5.70255
lhand -18.7856 -11.0186
lfingers 7.12502
lthumb 7.5121 18.828
rfemur -75.8434 -17.1587 7.09414
rtibia 52.5733
rfoot -26.0666 -6.11118
rtoes -27.5903
lfemur -41.3852 -6.36533 -2.35214
ltibia 65.305
lfoot -11.1138 13.355
ltoes -21.268
258
root 10.6381 16.108 11.1277 -137.302 -1.39949 165.249
lowerback -9.33437 -3.06008 -2.47208
upperback 2.56373 -3.77903 -0.71529
thorax 8.06738 -1.95965 0.0150466
lowerneck -1.02921 -4.3161 0.945213
upperneck 1.91727 -5.71019 -1.56883
head 0.678761 -2.84815 -0.679714
rclavicle -1.59028e-015 5.56597e-015
rhumerus -33.9329 9.51982 -80.495
rradius 42.8064
rwrist -8.41522
rhand -1.85348 -50.8839
rfingers 7.12502
rthumb 23.8139 -79.4279
lclavicle -1.59028e-015 5.56597e-015
lhumerus -38.4387 -11.2122 72.5317
lradius 32.3182
lwrist 5.57952
lhand -18.2118 -10.682
lfingers 7.12502
lthumb 8.06595 19.1441
rfemur -74.4316 -16.2111 7.59122
rtibia 51.6527
rfoot -26.0114 -5.4975
rtoes -27.3615
lfemur -41.3885 -6.2281 -3.28581
ltibia 66.6248
lfoot -11.1368 13.237
ltoes -25.8004
259
root 10.6861 16.1416 11.0905 -137.106 -1.15366 165.625
lowerback -9.7049 -2.98795 -2.43721
upperback 2.51631 -3.67297 -0.708125
thorax 8.226 -1.90431 0.00178259
lowerneck -1.30563 -4.24991 1.02285
upperneck 2.27221 -5.62298 -1.5402
head 0.834711 -2.80532 -0.697258
rclavicle -5.24792e-014 3.26007e-014
rhumerus -33.5944 9.24101 -80.8421
rradius 42.9833
rwrist -8.44081
rhand -2.91888 -50.2482
rfingers 7.12502
rthumb 22.7918 -78.9217
lclavicle -5.24792e-014 3.26007e-014
lhumerus -38.4432 -10.8816 72.4164
lradius 32.2585
lwrist 5.46697
lhand -17.8877 -10.2593
lfingers 7.12502
lthumb 8.37873 19.5545
rfemur -74.01 -16.0733 8.45015
rtibia 50.1815
rfoot -25.3669 -4.7493
rtoes -27.1088
lfemur -42.9413 -5.96685 -4.09223
ltibia 68.2343
lfoot -11.1815 13.1561
ltoes -30.1572
260
root 10.7344 16.1777 11.0541 -137.087 -0.824653 165.939
lowerback -9.97017 -2.99103 -2.55814
upperback 2.40349 -3.65433 -0.67997
thorax 8.26729 -1.89988 0.0915639
lowerneck -0.922652 -4.05961 1.00114
upperneck 2.36458 -5.3556 -1.70075
head 0.798988 -2.66972 -0.732135
rclavicle -1.35174e-014 -2.3059e-014
rhumerus -33.6508 9.2488 -81.2097
rradius 43.3666
rwrist -8.46824
rhand -3.06113 -50.0219
rfingers 7.12502
rthumb 22.6553 -78.7121
lclavicle -1.35174e-014 -2.3059e-014
lhumerus -38.6772 -10.3333 72.3669
lradius 31.9746
lwrist 5.22761
lhand -18.1677 -10.4355
lfingers 7.12502
lthumb 8.10844 19.3889
rfemur -73.7869 -15.5094 8.87514
rtibia 49.6585
rfoot -25.3063 -4.44177
rtoes -26.9705
lfemur -44.3831 -5.86795 -4.99323
ltibia 69.7459
lfoot -11.5903 12.9025
ltoes -30.0981
261
root 10.7795 16.2171 11.014 -137.277 -0.434991 166.292
lowerback -9.99681 -2.82272 -2.54684
upperback 2.61914 -3.4218 -0.814886
thorax 8.50007 -1.78665 -0.0267107
lowerneck -1.35183 -3.82995 1.4568
upperneck 2.39443 -5.05925 -2.00602
head 0.866808 -2.52466 -0.910484
rclavicle -1.03368e-014 1.66979e-014
rhumerus -33.2254 8.84003 -81.5841
rradius 43.7278
rwrist -8.66713
rhand -2.29456 -50.4267
rfingers 7.12502
rthumb 23.3908 -79.0253
lclavicle -1.03368e-014 1.66979e-014
lhumerus -38.2194 -10.2939 72.2073
lradius 31.7096
lwrist 4.9722
lhand -18.3379 -10.3604
lfingers 7.12502
lthumb 7.94426 19.4703
rfemur -73.4266 -14.6274 9.04944
rtibia 49.4412
rfoot -25.5037 -4.30983
rtoes -26.825
lfemur -45.5218 -5.83782 -5.90775
ltibia 70.9385
lfoot -12.237 12.3377
ltoes -28.3061
262
root 10.8225 16.2544 10.9686 -137.579 0.0100333 166.699
lowerback -10.0178 -2.72365 -2.60592
upperback 2.65536 -3.27845 -0.848575
thorax 8.54939 -1.71993 -0.00667861
lowerneck -1.38005 -3.97397 1.07659
upperneck 2.68497 -5.25953 -1.36402
head 0.983767 -2.62228 -0.658426
rclavicle 9.54166e-015 -3.97569e-015
rhumerus -33.302 8.86693 -81.9652
rradius 44.2368
rwrist -9.20971
rhand -2.6574 -50.7456
rfingers 7.12502
rthumb 23.0427 -79.388
lclavicle 9.54166e-015 -3.97569e-015
lhumerus -38.3986 -10.0449 72.2083
lradius 31.5477
lwrist 4.57058
lhand -18.2635 -10.0894
lfingers 7.12502
lthumb 8.01605 19.7386
rfemur -72.7831 -13.7358 9.2345
rtibia 48.917
rfoot -25.5577 -4.01095
rtoes -26.4894
lfemur -46.3606 -5.74128 -6.88519
ltibia 71.8319
lfoot -13.0121 11.6945
ltoes -27.1391
263
root 10.8634 16.2889 10.9234 -137.841 0.289618 167.157
lowerback -10.0251 -2.63917 -2.5596
upperback 2.68922 -3.17172 -0.802842
thorax 8.58751 -1.66638 0.0333126
lowerneck -1.54733 -3.84306 0.921786
upperneck 3.08101 -5.07792 -1.29231
head 1.14409 -2.53108 -0.620386
rclavicle -1.82882e-014 -2.14687e-014
rhumerus -33.3558 8.77074 -82.2723
rradius 44.6518
rwrist -9.64002
rhand -3.10253 -50.6205
rfingers 7.12502
rthumb 22.6156 -79.3156
lclavicle -1.82882e-014 -2.14687e-014
lhumerus -38.4209 -9.86298 72.3197
lradius 31.2088
lwrist 4.12683
lhand -18.5668 -10.2497
lfingers 7.12502
lthumb 7.7233 19.5892
rfemur -72.0393 -12.958 9.58077
rtibia 48.2525
rfoot -25.6 -3.60493
rtoes -25.6537
lfemur -47.2592 -5.70644 -7.72619
ltibia 72.5475
lfoot -13.9156 11.0903
ltoes -25.298
264
root 10.9029 16.3263 10.8838 -137.963 0.43232 167.636
lowerback -10.1193 -2.64349 -2.48256
upperback 2.55092 -3.1907 -0.647604
thorax 8.49749 -1.67152 0.151997
lowerneck -0.986373 -3.69614 0.617982
upperneck 3.1152 -4.87003 -1.13187
head 1.07239 -2.4245 -0.505991
rclavicle 7.95139e-016 1.59028e-015
rhumerus -33.5632 9.02327 -82.5665
rradius 44.8547
rwrist -9.96064
rhand -2.97698 -50.3331
rfingers 7.12502
rthumb 22.7361 -79.0135
lclavicle 7.95139e-016 1.59028e-015
lhumerus -38.7895 -9.45405 72.5116
lradius 30.9972
lwrist 3.63773
lhand -18.9084 -10.6321
lfingers 7.12502
lthumb 7.39353 19.2187
rfemur -71.4311 -12.2183 9.99826
rtibia 47.6035
rfoot -25.5995 -3.25983
rtoes -24.4713
lfemur -48.4104 -5.70724 -8.45616
ltibia 73.065
lfoot -14.3906 10.7604
ltoes -26.332
265
root 10.9416 16.3627 10.8455 -137.977 0.596909 168.015
lowerback -10.288 -2.42363 -2.35478
upperback 2.77729 -2.89666 -0.816107
thorax 8.8168 -1.52119 -0.0615439
lowerneck -1.92527 -3.6957 1.37866
upperneck 3.36729 -4.90255 -1.27873
head 1.29118 -2.44053 -0.703744
rclavicle -8.74653e-015 1.03368e-014
rhumerus -32.9816 8.24917 -82.9697
rradius 44.9256
rwrist -10.065
rhand -2.74281 -50.321
rfingers 7.12502
rthumb 22.9608 -78.9736
lclavicle -8.74653e-015 1.03368e-014
lhumerus -38.0263 -9.62967 72.2501
lradius 30.8455
lwrist 3.45343
lhand -18.818 -10.667
lfingers 7.12502
lthumb 7.48084 19.1807
rfemur -70.9888 -11.5372 10.2928
rtibia 47.0453
rfoot -25.5282 -3.09765
rtoes -23.8562
lfemur -49.7234 -5.69829 -9.33652
ltibia 73.5332
lfoot -14.4453 10.6831
ltoes -30.1419
266
root 10.9747 16.397 10.8018 -138.164 0.79724 168.257
lowerback -10.4589 -2.46378 -2.37463
upperback 2.69773 -2.94232 -0.817455
thorax 8.83178 -1.54311 -0.0653961
lowerneck -1.45645 -3.49863 1.32022
upperneck 3.46467 -4.61994 -1.39656
head 1.24377 -2.29733 -0.716806
rclavicle -1.98785e-015 -1.35174e-014
rhumerus -33.2835 8.44773 -83.3568
rradius 45.1955
rwrist -10.2181
rhand -2.47186 -50.1435
rfingers 7.12502
rthumb 23.2207 -78.7636
lclavicle -1.98785e-015 -1.35174e-014
lhumerus -38.332 -9.12812 72.1792
lradius 30.7733
lwrist 3.41971
lhand -18.3839 -10.4321
lfingers 7.12502
lthumb 7.89986 19.4003
rfemur -70.3761 -10.9859 10.4365
rtibia 46.5706
rfoot -25.5331 -3.03343
rtoes -23.7964
lfemur -50.7582 -5.87895 -10.3986
ltibia 73.6753
lfoot -14.6762 10.5104
ltoes -31.9988
267
root 11.005 16.4321 10.7509 -138.598 1.02285 168.563
lowerback -10.373 -2.39934 -2.35405
upperback 2.74598 -2.86116 -0.81157
thorax 8.83158 -1.5033 -0.0534947
lowerneck -1.42123 -3.38706 1.28609
upperneck 3.82398 -4.45694 -1.46442
head 1.3529 -2.21355 -0.735177
rclavicle 9.14409e-015 5.1684e-014
rhumerus -33.5182 8.53156 -83.6851
rradius 45.4131
rwrist -10.402
rhand -2.24505 -50.0605
rfingers 7.12502
rthumb 23.4383 -78.6529
lclavicle 9.14409e-015 5.1684e-014
lhumerus -38.3907 -8.89242 72.2403
lradius 30.6342
lwrist 3.42276
lhand -18.0842 -10.1823
lfingers 7.12502
lthumb 8.18911 19.639
rfemur -69.4454 -10.3784 10.6099
rtibia 45.9779
rfoot -25.5096 -2.94888
rtoes -23.9533
lfemur -51.3554 -6.14996 -11.4003
ltibia 73.3768
lfoot -15.4844 10.0919
ltoes -31.258
268
root 11.0506 16.4639 10.7486 -137.771 0.841786 168.515
lowerback -11.0414 -2.59537 -2.66047
upperback 2.39313 -3.06967 -0.668027
thorax 8.86691 -1.61876 0.212593
lowerneck -1.57557 -3.31945 1.22558
upperneck 4.24161 -4.35301 -1.53017
head 1.51391 -2.16045 -0.754515
rclavicle -2.26615e-014 1.90833e-014
rhumerus -33.5723 8.70306 -83.9512
rradius 45.5792
rwrist -10.5214
rhand -1.8049 -50.744
rfingers 7.12502
rthumb 23.8605 -79.282
lclavicle -2.26615e-014 1.90833e-014
lhumerus -38.5475 -8.63385 72.3825
lradius 30.6722
lwrist 3.15225
lhand -18.3769 -10.252
lfingers 7.12502
lthumb 7.90661 19.5802
rfemur -70.1556 -10.3759 10.8688
rtibia 45.757
rfoot -25.4063 -3.09941
rtoes -24.0656
lfemur -53.9654 -6.54161 -12.1499
ltibia 73.6757
lfoot -16.3594 9.40865
ltoes -30.7549
